<svg width="208" height="53" viewBox="0 0 208 53" fill="none" xmlns="http://www.w3.org/2000/svg">
<path d="M6.36957 23.0152H1.53961V0.648316H8.24969L13.9225 14.0361L19.6925 0.648316H25.0411V23.0152H19.887V10.9566L14.7329 23.0152H11.5561L6.36957 10.8269V23.0152Z" fill="#0C228C"/>
<path d="M27.6255 19.1253C27.6255 16.6293 29.0518 14.1981 33.4928 14.1981C34.2707 14.1981 35.4053 14.3278 36.0536 14.6844V14.1009C36.0536 11.8642 35.0811 10.9241 33.2334 10.9241C31.6451 10.9241 30.6402 12.0263 30.2836 13.0312H28.76C28.76 9.822 30.6077 6.80732 35.308 6.80732C39.36 6.80732 41.6291 9.0116 41.6291 12.9339V17.5694C41.6291 19.0929 41.694 20.1302 41.9209 20.9406C42.0505 21.3944 42.2774 21.8807 42.7637 22.2048V22.9828C42.3747 23.1773 41.305 23.3718 40.3973 23.3718C38.4848 23.3718 36.8964 22.918 36.3129 21.1675C35.535 22.4966 34.2383 23.5015 32.0665 23.5015C28.9221 23.5015 27.6255 21.4269 27.6255 19.1253ZM33.201 18.4122C33.201 19.255 33.6224 19.8061 34.4976 19.8061C35.7943 19.8061 36.0536 18.5094 36.0536 16.759V16.5645C35.8267 16.4997 35.5025 16.4024 35.0487 16.4024C33.8493 16.4024 33.201 17.1156 33.201 18.4122Z" fill="#0C228C"/>
<path d="M43.7384 19.1253C43.7384 16.6293 45.1647 14.1981 49.6057 14.1981C50.3837 14.1981 51.5182 14.3278 52.1666 14.6844V14.1009C52.1666 11.8642 51.1941 10.9241 49.3464 10.9241C47.758 10.9241 46.7531 12.0263 46.3965 13.0312H44.873C44.873 9.822 46.7207 6.80732 51.421 6.80732C55.473 6.80732 57.7421 9.0116 57.7421 12.9339V17.5694C57.7421 19.0929 57.8069 20.1302 58.0338 20.9406C58.1635 21.3944 58.3904 21.8807 58.8766 22.2048V22.9828C58.4876 23.1773 57.4179 23.3718 56.5103 23.3718C54.5977 23.3718 53.0094 22.918 52.4259 21.1675C51.6479 22.4966 50.3513 23.5015 48.1794 23.5015C45.0351 23.5015 43.7384 21.4269 43.7384 19.1253ZM49.314 18.4122C49.314 19.255 49.7354 19.8061 50.6106 19.8061C51.9072 19.8061 52.1666 18.5094 52.1666 16.759V16.5645C51.9396 16.4997 51.6155 16.4024 51.1617 16.4024C49.9623 16.4024 49.314 17.1156 49.314 18.4122Z" fill="#0C228C"/>
<path d="M60.8239 7.45564L65.7511 7.13148L66.3021 11.8642C66.6263 9.14126 67.5664 6.80732 70.0624 6.80732C72.2666 6.80732 73.2391 8.75227 73.2391 10.5351C73.2391 11.7669 73.077 12.3504 72.8501 13.0312H70.581C70.5486 12.8367 70.5162 12.6746 70.4838 12.5125C70.2893 11.8642 69.8355 11.4428 69.0899 11.4428C67.8581 11.4428 66.7235 12.5773 66.7235 18.2825V23.0152H60.8239V7.45564Z" fill="#0C228C"/>
<path d="M76.1198 16.8562V10.1137H74.2397V8.10396L76.1198 7.55289V4.37614L82.0195 3.8899V7.45564H85.3259V10.1137H82.0195V17.7639C82.0195 19.1902 82.5057 19.6116 83.3485 19.6116C84.2238 19.6116 84.4507 19.1578 84.4507 18.6067H85.6501C85.6501 21.5565 84.6452 23.5015 81.436 23.5015C78.162 23.5015 76.1198 22.1076 76.1198 16.8562Z" fill="#0C228C"/>
<path d="M86.9528 15.7865C86.9528 10.989 89.9999 6.80732 94.4733 6.80732C98.7197 6.80732 100.892 9.30334 100.892 12.6746C100.892 13.6146 100.762 15.2679 100.632 15.9486H92.7228C92.8525 17.9584 93.5008 19.7088 96.321 19.7088C98.2659 19.7088 99.4329 18.7363 99.6274 17.3101H101.183C101.183 20.7785 98.8818 23.5015 94.7974 23.5015C89.5136 23.5015 86.9528 20.6813 86.9528 15.7865ZM94.8298 10.9241C93.7925 10.9241 92.8525 11.8966 92.7228 14.0361L96.1589 13.8416C96.1913 13.6795 96.2561 13.096 96.2561 12.7394C96.2561 11.8318 96.0616 10.9241 94.8298 10.9241Z" fill="#0C228C"/>
<path d="M103.623 7.45564L108.647 7.13148L109.263 12.4153C109.523 9.36818 110.527 6.80732 114.19 6.80732C117.983 6.80732 119.053 9.23851 119.053 12.9663V23.0152H113.153V15.8189C113.153 12.3504 112.57 11.7021 111.565 11.7021C110.106 11.7021 109.523 13.6146 109.523 18.6067V23.0152H103.623V7.45564Z" fill="#0C228C"/>
<path d="M129.747 0.648316H137.202C144.788 0.648316 148.742 4.95962 148.742 11.7021C148.742 20.2275 143.232 23.0152 137.202 23.0152H129.747V0.648316ZM137.3 5.18653H135.938V18.477H137.3C141.579 18.477 142.13 14.9437 142.13 11.7345C142.13 7.1639 140.347 5.18653 137.3 5.18653Z" fill="#0C228C"/>
<path d="M150.676 15.7865C150.676 10.989 153.724 6.80732 158.197 6.80732C162.443 6.80732 164.615 9.30334 164.615 12.6746C164.615 13.6146 164.486 15.2679 164.356 15.9486H156.446C156.576 17.9584 157.224 19.7088 160.045 19.7088C161.99 19.7088 163.157 18.7363 163.351 17.3101H164.907C164.907 20.7785 162.605 23.5015 158.521 23.5015C153.237 23.5015 150.676 20.6813 150.676 15.7865ZM158.554 10.9241C157.516 10.9241 156.576 11.8966 156.446 14.0361L159.883 13.8416C159.915 13.6795 159.98 13.096 159.98 12.7394C159.98 11.8318 159.785 10.9241 158.554 10.9241Z" fill="#0C228C"/>
<path d="M167.347 0.324158L173.246 0V23.0152H167.347V0.324158Z" fill="#0C228C"/>
<path d="M175.685 15.7865C175.685 10.989 178.732 6.80732 183.205 6.80732C187.452 6.80732 189.624 9.30334 189.624 12.6746C189.624 13.6146 189.494 15.2679 189.364 15.9486H181.455C181.584 17.9584 182.233 19.7088 185.053 19.7088C186.998 19.7088 188.165 18.7363 188.359 17.3101H189.915C189.915 20.7785 187.614 23.5015 183.529 23.5015C178.246 23.5015 175.685 20.6813 175.685 15.7865ZM183.562 10.9241C182.525 10.9241 181.584 11.8966 181.455 14.0361L184.891 13.8416C184.923 13.6795 184.988 13.096 184.988 12.7394C184.988 11.8318 184.794 10.9241 183.562 10.9241Z" fill="#0C228C"/>
<path d="M192.355 7.45564L197.379 7.13148L197.995 12.4153C198.255 9.36818 199.259 6.80732 202.922 6.80732C206.715 6.80732 207.785 9.23851 207.785 12.9663V23.0152H201.885V15.8189C201.885 12.3504 201.302 11.7021 200.297 11.7021C198.838 11.7021 198.255 13.6146 198.255 18.6067V23.0152H192.355V7.45564Z" fill="#0C228C"/>
<path d="M2.29612 52.7299H0L6.64524 34.0638H9.53566L15.8027 52.7299H12.5341L10.9674 47.7325H4.02497L2.29612 52.7299ZM4.7003 45.7065H10.3461L7.64473 37.1433L4.7003 45.7065Z" fill="#040825"/>
<path d="M17.2948 46.3008C17.2948 42.1137 19.4288 39.4934 22.4003 39.4934C24.2642 39.4934 25.7499 40.655 26.4793 42.8431V33.6856L29.0995 33.5505V52.7299H27.0195L26.7494 49.0291C26.2632 51.5954 24.9665 53 22.4003 53C19.861 53 17.2948 50.974 17.2948 46.3008ZM26.4793 46.1657C26.4793 43.2753 24.9125 41.5735 23.2377 41.5735C21.2387 41.5735 19.9691 43.4374 19.9691 46.2467C19.9691 49.6774 21.5629 51.1361 23.2647 51.1361C25.1826 51.1361 26.4793 49.5423 26.4793 46.1657Z" fill="#040825"/>
<path d="M31.2823 39.8986H34.1727L37.4683 49.7314L40.818 39.8986H43.1141L38.5219 52.7299H35.8746L31.2823 39.8986Z" fill="#040825"/>
<path d="M45.3056 36.1978V33.5505H48.196V36.1978H45.3056ZM45.3596 39.8986L47.9799 39.7636V52.7299H45.3596V39.8986Z" fill="#040825"/>
<path d="M51.1932 46.6519C51.1932 42.654 53.3542 39.4934 56.92 39.4934C60.3776 39.4934 61.5662 41.7085 61.5662 43.8426C61.5662 44.4909 61.4582 45.6524 61.4041 46.0036H53.8405V46.4358C53.8405 49.4073 55.1101 51.1631 57.6223 51.1631C59.7834 51.1631 60.8639 49.9746 61.053 48.2457H61.9984C61.9984 51.1631 60.1615 53 57.028 53C53.4082 53 51.1932 50.839 51.1932 46.6519ZM57.082 41.5464C55.4072 41.5464 54.2997 42.708 53.9485 44.6259H59.4052C59.4322 44.5449 59.4592 44.2478 59.4592 43.8966C59.4592 42.762 59.027 41.5464 57.082 41.5464Z" fill="#040825"/>
<path d="M64.1181 48.5699H65.2527C65.5768 50.4608 66.7114 51.5413 68.6563 51.5413C70.088 51.5413 71.3577 51.0821 71.3577 49.6234C71.3577 48.4078 70.6553 47.8675 68.6023 47.3543C65.982 46.6789 64.5503 45.6524 64.5503 43.3833C64.5503 41.0062 66.4683 39.4934 69.2776 39.4934C72.006 39.4934 73.7618 40.9251 73.4917 43.3293H72.3031C72.2221 42.1407 71.3036 41.0602 69.5478 41.0602C68.1161 41.0602 67.0896 41.6005 67.0896 42.9241C67.0896 44.1937 67.981 44.5179 70.1961 45.1122C72.9514 45.8415 73.9779 47.0841 73.9779 49.0561C73.9779 51.4873 72.006 53 69.0615 53C65.7389 53 64.1181 51.3522 64.1181 48.5699Z" fill="#040825"/>
</svg>
